PathFileType	4	(X/Y/Z)	C:\Users\Basilio\Documents\Thesis Gigler\squatting_fais\c3dfiles\073\SLS_back_pre2\markers_experimental.trc
DataRate	CameraRate	NumFrames	NumMarkers	Units	OrigDataRate	OrigDataStartFrame	OrigNumFrames
200.000000	200.000000	4	61	mm	200.000000	791	1267
Frame#	Time	FHD			LBHD			RBHD			C7			T10			CLAV			LSHO			LUUPA			LMUPA			LDUPA			LLEP			LMEP			LRAD			LUL			LRFIN			RSHO			RUPA1			RMUPA			RDUPA			RLEP			RMEP			RRAD			RUL			RUFIN			LASI			RASI			USACR			LSACR			RSACR			LTHI1			LTHI2			LTHI3			LTHI4			LLFC			LMFC			LTIB1			LTIB2			LTIB3			LTIB4			LLMAL			LMMAL			LHEE			LMT1			LMT2			LMT5			RTHI			RTHI2			RTHI3			RTHI4			RLFC			RTIB1			RTIB2			RTIB3			RTIB4			RLMAL			RMMAL			RHEE			RMT1			RMT2			RMT5			RMFC			
		X1	Y1	Z1	X2	Y2	Z2	X3	Y3	Z3	X4	Y4	Z4	X5	Y5	Z5	X6	Y6	Z6	X7	Y7	Z7	X8	Y8	Z8	X9	Y9	Z9	X10	Y10	Z10	X11	Y11	Z11	X12	Y12	Z12	X13	Y13	Z13	X14	Y14	Z14	X15	Y15	Z15	X16	Y16	Z16	X17	Y17	Z17	X18	Y18	Z18	X19	Y19	Z19	X20	Y20	Z20	X21	Y21	Z21	X22	Y22	Z22	X23	Y23	Z23	X24	Y24	Z24	X25	Y25	Z25	X26	Y26	Z26	X27	Y27	Z27	X28	Y28	Z28	X29	Y29	Z29	X30	Y30	Z30	X31	Y31	Z31	X32	Y32	Z32	X33	Y33	Z33	X34	Y34	Z34	X35	Y35	Z35	X36	Y36	Z36	X37	Y37	Z37	X38	Y38	Z38	X39	Y39	Z39	X40	Y40	Z40	X41	Y41	Z41	X42	Y42	Z42	X43	Y43	Z43	X44	Y44	Z44	X45	Y45	Z45	X46	Y46	Z46	X47	Y47	Z47	X48	Y48	Z48	X49	Y49	Z49	X50	Y50	Z50	X51	Y51	Z51	X52	Y52	Z52	X53	Y53	Z53	X54	Y54	Z54	X55	Y55	Z55	X56	Y56	Z56	X57	Y57	Z57	X58	Y58	Z58	X59	Y59	Z59	X60	Y60	Z60	X61	Y61	Z61	

792	3.955	18.92514801025391	1311.131225585938	-761.8253784179689	-116.4798736572266	1294.1240234375	-792.481140136719	-147.4207763671875	1280.053100585938	-660.4755859375001	-179.6086883544922	1209.948120117188	-723.9989624023439	-403.768524169922	972.2946777343752	-746.6773681640626	-100.2444915771485	1077.6591796875	-720.1457519531251	-104.2185974121094	1153.963256835938	-850.9654541015627	-33.83984756469727	1078.753173828125	-949.7150878906252	7.541702270507814	1090.034301757813	-923.2576293945315	24.21537971496583	1043.2490234375	-958.6171875000002	124.3380203247071	1004.786315917969	-958.6602172851565	111.6894836425782	948.567321777344	-917.7929687500002	377.5716247558594	1001.380249023438	-831.2792968750002	385.5866088867189	997.8499755859377	-905.467468261719	459.1621093750001	1004.123413085938	-818.681335449219	-99.99050140380862	1139.711669921875	-587.9765625000001	-34.92007064819337	1038.376953125	-479.1752014160157	7.233465671539308	1053.127563476563	-496.9290466308595	23.05672264099121	1001.352783203125	-471.3056945800782	112.6073684692383	972.2224121093752	-469.6954650878907	104.3709564208985	917.8924560546877	-531.3466186523439	366.6692810058594	983.896423339844	-584.7030029296876	377.3189392089844	991.509460449219	-511.5642700195314	457.228973388672	1007.123229980469	-589.9827880859376	-352.7900390625001	739.7254028320314	-855.2504882812502	-355.3063659667969	780.0629882812502	-616.1890258789064	-491.2352905273439	890.1155395507815	-745.0415039062501	-512.6286010742189	865.231628417969	-769.3032836914065	-519.7905273437501	875.0913696289065	-713.5357055664064	-406.8873901367189	439.060028076172	-898.1563720703127	-370.9048767089844	364.4764404296876	-875.989929199219	-331.7105407714844	369.9045715332032	-846.742126464844	-402.3970947265626	314.3496398925782	-865.8660278320315	-414.1899414062501	271.3085327148438	-866.0187988281252	-429.5059814453126	277.4836730957032	-729.1723632812501	-589.1944580078126	212.9879302978516	-819.7424316406252	-623.9238891601564	263.3885498046876	-881.4061279296877	-632.8544311523439	227.6960601806641	-856.6340942382815	-713.2145996093751	234.6224212646485	-831.020202636719	-826.016540527344	296.4294128417969	-872.913757324219	-807.430603027344	296.7200317382813	-785.1682739257815	-851.7471923828127	364.9191589355469	-841.1343994140627	-888.5338134765627	153.168197631836	-769.6799926757815	-885.528747558594	144.7294921875	-807.535583496094	-904.109069824219	173.0566711425782	-866.0968017578127	-338.9092712402344	622.2371826171876	-550.5817260742189	-274.3929748535157	609.9599609375001	-561.5238037109376	-253.1609802246094	633.8430786132814	-569.1989746093751	-240.3886260986329	537.1406250000001	-585.5840454101564	-148.470932006836	445.0230102539064	-629.9254150390626	-177.711654663086	302.3351440429688	-737.2200317382814	-226.8005523681641	230.7144470214844	-672.7230224609376	-212.6200408935547	224.5804443359376	-717.3674926757814	-255.8820953369141	199.6283569335938	-748.4361572265626	-350.0250854492188	96.19273376464847	-692.0664672851564	-344.0775146484376	125.6648101806641	-779.976013183594	-430.2525329589845	82.29949951171876	-745.3598632812501	-205.7153472900391	54.22544860839845	-762.7584838867189	-205.753890991211	52.39191055297853	-720.9248046875001	-248.5473632812501	35.92226028442384	-672.2521972656251	-158.5552825927735	452.8588256835939	-754.8331909179689	
793	3.96	18.37803649902344	1312.2822265625	-761.5908813476564	-116.9183044433594	1295.411254882813	-792.4243774414065	-147.622299194336	1281.118774414063	-660.3056640625001	-179.823974609375	1211.000366210938	-723.7994384765626	-403.8238830566407	973.3596191406252	-746.5460205078126	-100.477653503418	1078.803833007813	-720.1162719726564	-104.4184951782227	1155.1669921875	-850.9035644531252	-34.28444290161134	1080.025146484375	-949.6022949218752	7.216182708740236	1091.288208007813	-923.483581542969	23.99741363525391	1044.49951171875	-958.6347656250002	123.8703079223633	1005.968933105469	-958.6907348632815	111.7424926757813	949.7744140625002	-917.9160156250002	377.3962097167969	1002.793334960938	-831.5573730468752	385.549774169922	999.4002075195315	-905.5487060546877	458.8692626953126	1005.573974609375	-818.9916992187502	-100.1352157592774	1140.757080078125	-587.8729858398439	-35.06370925903321	1039.480346679688	-479.1714477539064	7.153436660766603	1054.300170898438	-496.7826538085939	22.91198539733887	1002.559753417969	-471.2864379882814	112.4430770874024	973.4803466796877	-469.7085876464845	104.2037887573242	919.017028808594	-531.3465576171876	366.3356323242188	985.1529541015627	-584.9846191406251	377.1209106445313	992.8248291015627	-511.5974121093751	457.0049438476564	1008.425231933594	-590.1828002929689	-352.9594726562501	740.7994995117189	-855.1697387695315	-355.6513977050782	780.6644287109377	-616.0596313476564	-491.3529663085939	891.0926513671877	-744.8411865234376	-512.6621704101564	866.2581787109377	-769.1939086914065	-519.8966674804689	876.054382324219	-713.4605712890626	-406.8287658691407	440.144500732422	-898.0402832031252	-370.7177429199219	365.4734191894532	-876.157897949219	-331.4854431152344	371.1337280273438	-846.7976074218752	-402.0620422363282	315.4653320312501	-865.7738037109377	-413.9721679687501	272.3392944335938	-866.068786621094	-429.1866149902345	278.5676269531251	-729.1295166015626	-588.9358520507814	213.8428192138672	-819.1604614257815	-623.5593261718751	264.2901916503907	-881.2834472656252	-632.4533691406251	228.5085144042969	-856.4781494140627	-712.8430786132814	235.4396514892579	-830.7241821289065	-825.6858520507815	297.1043701171876	-872.5535278320315	-807.1226196289065	297.3900756835938	-784.940124511719	-851.5325317382815	365.6041564941407	-840.8734130859377	-888.2031860351565	153.816162109375	-769.5430297851565	-885.2125244140627	145.380111694336	-807.2299804687502	-903.7996215820315	173.7416229248047	-865.8853149414065	-339.2394104003907	622.8675537109376	-550.4515380859376	-274.7166137695313	610.5103759765626	-561.4699096679689	-253.4005432128907	634.2798461914064	-569.1262207031251	-240.837142944336	537.5778808593751	-585.4814453125001	-149.0279541015625	445.2838745117189	-629.7232666015626	-177.9110412597657	302.5706176757813	-737.1274414062501	-227.0054321289063	230.8465881347657	-672.6132812500001	-212.8435821533204	224.7051239013672	-717.2419433593751	-256.1889648437501	199.7311706542969	-748.5072021484376	-350.0988769531251	96.18336486816409	-692.0092773437501	-344.1748962402344	125.6599884033203	-779.8990478515627	-430.2485656738282	82.28401947021486	-745.3607788085939	-205.6975708007813	54.25408172607423	-762.7205200195314	-205.7574157714844	52.39073944091798	-720.9345092773439	-248.5379486083985	35.91263961791993	-672.2503051757814	-159.1287994384766	453.1079101562501	-754.7558593750001	
794	3.965	17.74575996398926	1313.510375976563	-761.4871826171876	-117.1499786376953	1296.482788085938	-792.2964477539065	-147.8986358642578	1282.28271484375	-660.2014770507814	-179.9961395263672	1212.22900390625	-723.7379760742189	-403.928192138672	974.402038574219	-746.5065307617189	-100.7285766601563	1079.922485351563	-720.0391845703126	-104.509033203125	1156.382690429688	-850.8276977539065	-34.43450546264649	1081.12890625	-949.6162719726565	6.900093555450441	1092.478393554688	-923.3792724609377	23.56076049804688	1045.682006835938	-958.638122558594	123.6570434570313	1007.321166992188	-958.7573852539065	111.3364486694336	951.136169433594	-917.8929443359377	377.2206115722657	1004.042541503906	-831.747741699219	385.3128967285157	1000.666687011719	-905.8079223632815	458.8145446777345	1007.015319824219	-819.0644531250002	-100.2906875610352	1141.962036132813	-587.8227539062501	-35.16931915283204	1040.698974609375	-479.026824951172	6.989153861999513	1055.36572265625	-496.8511962890626	22.84577178955078	1003.643615722656	-471.2051086425782	112.4380950927735	974.577575683594	-469.5861816406251	104.1439056396485	920.1247558593752	-531.3421020507814	366.2366027832032	986.4437255859377	-585.4125976562501	377.0271606445313	994.1035766601565	-511.7160644531251	456.874481201172	1009.813842773438	-590.0552978515626	-353.0521240234376	741.8112182617189	-855.312683105469	-355.6575927734376	781.5642700195315	-616.1409301757814	-491.3509826660157	892.171325683594	-744.7894897460939	-512.7151489257814	867.3150024414065	-769.1983032226565	-519.9463500976564	877.1116333007815	-713.3340454101564	-406.6920471191407	441.2597656250001	-898.188415527344	-370.5698852539063	366.8211059570313	-876.0977172851565	-331.3604431152344	372.3117980957032	-846.7207641601565	-401.892303466797	316.5081481933594	-865.7852172851565	-413.7581176757814	273.4974365234376	-866.1060791015627	-428.8891906738282	279.6004028320313	-729.0816040039064	-588.5406494140626	214.7617187500001	-819.0255126953127	-623.3816528320314	265.2783203125001	-881.1253051757815	-632.0737915039064	229.2494354248047	-856.4501953125002	-712.5879516601564	236.4861907958985	-830.1561279296877	-825.3448486328127	297.9657287597657	-872.3466796875002	-806.791442871094	298.1828613281251	-784.777770996094	-851.232604980469	366.3027954101563	-840.6575317382815	-887.745788574219	154.4832458496094	-769.4685058593752	-884.7442016601565	145.9408569335938	-807.0256347656252	-903.4284667968752	174.5057525634766	-865.8269042968752	-339.5297851562501	623.5382080078126	-550.3162841796876	-274.9854736328126	611.0843505859376	-561.2680664062501	-253.6686248779297	634.8046875000001	-569.0059204101564	-241.2662963867188	538.0032958984376	-585.4031982421876	-149.6004943847657	445.5581359863282	-629.5558471679689	-178.4115295410157	302.7922363281251	-736.9017944335939	-227.2272949218751	231.0075836181641	-672.4987792968751	-213.0829620361329	224.9457244873047	-717.1578369140626	-256.3517761230469	199.8442382812501	-748.4530639648439	-350.0897216796876	96.13409423828128	-691.9912109375001	-344.2210388183594	125.6772689819336	-779.917175292969	-430.240447998047	82.24951934814455	-745.3746948242189	-205.6665039062501	54.28592681884767	-762.6804199218751	-205.7562408447266	52.4017677307129	-720.8972167968751	-248.5868530273438	35.91134262084962	-672.2122192382814	-159.6998748779297	453.4081115722657	-754.5132446289064	
795	3.97	17.6801872253418	1314.888916015625	-761.4669189453126	-117.3789291381836	1297.699096679688	-792.2276611328127	-148.1381225585938	1283.38818359375	-660.1242065429689	-180.1778717041016	1213.359619140625	-723.7122192382814	-404.0046386718751	975.4752197265627	-746.4297485351564	-100.9201202392578	1081.15771484375	-720.0466918945314	-104.9369812011719	1157.521728515625	-850.8483886718752	-34.6329460144043	1082.415893554688	-949.677185058594	6.67759418487549	1093.779174804688	-923.3845214843752	23.41967964172364	1047.003295898438	-958.7149658203127	123.6044311523438	1008.545288085938	-958.8039550781252	111.1380691528321	952.408142089844	-918.0787353515627	377.0580444335938	1005.516845703125	-831.8565063476565	385.0209045410157	1002.155578613281	-905.8821411132815	458.5227966308595	1008.339050292969	-819.3874511718752	-100.5153884887696	1143.11328125	-587.7810058593751	-35.22693252563477	1041.811889648438	-478.8603820800782	6.86224937438965	1056.572265625	-496.9080505371095	22.69041252136231	1004.840087890625	-471.1626586914064	112.2488632202149	975.7759399414065	-469.665252685547	104.0382995605469	921.289978027344	-531.4143066406251	366.1217956542969	987.8859863281252	-585.0305786132814	376.8558044433594	995.1507568359377	-511.9262695312501	456.767791748047	1011.337524414063	-589.7990112304689	-353.1092529296876	742.9323730468751	-855.2484130859377	-355.6325378417969	782.8338623046877	-616.0769653320314	-491.4618530273439	893.3549804687502	-744.6591796875001	-512.9475097656251	868.4000244140627	-769.0647583007815	-520.0327148437501	878.164245605469	-713.2477416992189	-406.6834716796876	442.4739074707032	-898.1866455078127	-370.4356994628907	367.9605712890626	-876.1216430664065	-331.2765808105469	373.3836669921876	-846.8251953125002	-401.6829528808595	317.6805114746094	-865.8220214843752	-413.4723205566407	274.6222534179688	-866.1093750000002	-428.5491333007814	280.7498779296876	-728.9801025390626	-588.1203613281251	215.7940216064454	-819.2444458007815	-622.7707519531251	265.7911376953126	-881.029235839844	-631.9666748046876	230.2034454345704	-856.5628662109377	-712.0975341796876	237.1362304687501	-830.358337402344	-825.113464355469	298.7308044433594	-872.3851318359377	-806.4489746093752	298.9626464843751	-784.601989746094	-851.0864868164065	367.0341796875001	-840.4190673828127	-887.1399536132815	155.2606658935547	-769.311706542969	-884.4815063476565	146.5535583496094	-806.994323730469	-903.2349853515627	175.3160095214844	-865.5998535156252	-339.8219909667969	624.2115478515626	-550.2542724609376	-275.3039550781251	611.6193237304689	-561.1423950195314	-253.9075622558594	635.3117675781251	-568.8339843750001	-241.7309265136719	538.5332641601564	-585.3438110351564	-150.2003479003907	445.8454589843751	-629.3919677734376	-178.752914428711	302.9722595214844	-736.6425781250001	-227.4602661132813	231.1102142333985	-672.4176635742189	-213.3182983398438	225.0556640625001	-717.0757446289064	-256.4795532226563	200.055648803711	-748.3839721679689	-350.1517028808594	96.13956451416018	-691.9859008789064	-344.2225952148438	125.6637573242188	-779.863708496094	-430.2519531250001	82.22299957275392	-745.4140625000001	-205.7043457031251	54.28568649291994	-762.6690063476564	-205.761215209961	52.39974212646486	-720.9093627929689	-248.5505676269532	35.89877319335938	-672.2264404296876	-160.2020416259766	453.7727661132814	-754.3574218750001	
